<svg xmlns="http://www.w3.org/2000/svg" width="800" height="450" viewBox="0 0 800 450">
  <defs>
    <linearGradient id="sky" x1="0" y1="0" x2="0" y2="1">
      <stop offset="0%" stop-color="#2c3e50"/>
      <stop offset="50%" stop-color="#34495e"/>
      <stop offset="100%" stop-color="#2c3e50"/>
    </linearGradient>
    <radialGradient id="cityGlow" cx="0.5" cy="0.8" r="0.5">
      <stop offset="0%" stop-color="#f39c12" stop-opacity="0.3"/>
      <stop offset="100%" stop-color="transparent"/>
    </radialGradient>
  </defs>
  <rect width="800" height="450" fill="url(#sky)"/>
  <!-- stars -->
  <circle cx="480" cy="30" r="1.5" fill="white" opacity="0.9"/>
  <circle cx="150" cy="50" r="1" fill="white" opacity="0.6"/>
  <circle cx="600" cy="20" r="1" fill="white" opacity="0.7"/>
  <circle cx="720" cy="45" r="1.5" fill="white" opacity="0.8"/>
  <circle cx="90" cy="70" r="1" fill="white" opacity="0.5"/>
  <!-- ground -->
  <rect x="0" y="340" width="800" height="110" fill="#1a1a2e"/>
  <!-- city glow -->
  <rect x="0" y="200" width="800" height="250" fill="url(#cityGlow)"/>
  <!-- buildings -->
  <rect x="40" y="240" width="50" height="160" fill="#2d3436" rx="2"/>
  <rect x="45" y="250" width="10" height="15" fill="#f1c40f" opacity="0.8"/>
  <rect x="60" y="250" width="10" height="15" fill="#f1c40f" opacity="0.6"/>
  <rect x="45" y="280" width="10" height="15" fill="#f1c40f" opacity="0.3"/>
  <rect x="60" y="295" width="10" height="15" fill="#f1c40f" opacity="0.7"/>
  <rect x="45" y="310" width="10" height="15" fill="#f1c40f" opacity="0.5"/>
  <rect x="60" y="325" width="10" height="15" fill="#f1c40f" opacity="0.8"/>

  <rect x="100" y="180" width="55" height="220" fill="#3d3d3d" rx="2"/>
  <rect x="105" y="190" width="8" height="12" fill="#f1c40f" opacity="0.7"/>
  <rect x="118" y="190" width="8" height="12" fill="#f1c40f" opacity="0.9"/>
  <rect x="131" y="190" width="8" height="12" fill="#f1c40f" opacity="0.5"/>
  <rect x="105" y="215" width="8" height="12" fill="#f1c40f" opacity="0.8"/>
  <rect x="118" y="215" width="8" height="12" fill="#f1c40f" opacity="0.3"/>
  <rect x="131" y="215" width="8" height="12" fill="#f1c40f" opacity="0.9"/>
  <rect x="105" y="240" width="8" height="12" fill="#f1c40f" opacity="0.6"/>
  <rect x="118" y="240" width="8" height="12" fill="#f1c40f" opacity="0.8"/>
  <rect x="105" y="265" width="8" height="12" fill="#f1c40f" opacity="0.4"/>
  <rect x="131" y="265" width="8" height="12" fill="#f1c40f" opacity="0.7"/>
  <rect x="118" y="290" width="8" height="12" fill="#f1c40f" opacity="0.5"/>

  <rect x="165" y="220" width="70" height="180" fill="#444" rx="2"/>
  <rect x="170" y="230" width="8" height="10" fill="#f1c40f" opacity="0.8"/>
  <rect x="183" y="230" width="8" height="10" fill="#f1c40f" opacity="0.6"/>
  <rect x="196" y="230" width="8" height="10" fill="#f1c40f" opacity="0.9"/>
  <rect x="209" y="230" width="8" height="10" fill="#f1c40f" opacity="0.4"/>
  <rect x="222" y="230" width="8" height="10" fill="#f1c40f" opacity="0.7"/>
  <rect x="170" y="255" width="8" height="10" fill="#f1c40f" opacity="0.5"/>
  <rect x="183" y="255" width="8" height="10" fill="#f1c40f" opacity="0.8"/>
  <rect x="196" y="255" width="8" height="10" fill="#f1c40f" opacity="0.3"/>
  <rect x="209" y="255" width="8" height="10" fill="#f1c40f" opacity="0.9"/>
  <rect x="170" y="280" width="8" height="10" fill="#f1c40f" opacity="0.7"/>
  <rect x="196" y="280" width="8" height="10" fill="#f1c40f" opacity="0.5"/>
  <rect x="222" y="280" width="8" height="10" fill="#f1c40f" opacity="0.8"/>
  <rect x="183" y="305" width="8" height="10" fill="#f1c40f" opacity="0.6"/>
  <rect x="209" y="305" width="8" height="10" fill="#f1c40f" opacity="0.4"/>

  <!-- tall tower -->
  <rect x="260" y="120" width="40" height="280" fill="#555" rx="2"/>
  <rect x="265" y="135" width="30" height="6" fill="#e74c3c" opacity="0.9"/>
  <rect x="265" y="195" width="30" height="6" fill="#e74c3c" opacity="0.9"/>
  <rect x="265" y="255" width="30" height="6" fill="#e74c3c" opacity="0.9"/>
  <rect x="270" y="150" width="5" height="8" fill="#f1c40f" opacity="0.7"/>
  <rect x="285" y="150" width="5" height="8" fill="#f1c40f" opacity="0.9"/>
  <rect x="270" y="170" width="5" height="8" fill="#f1c40f" opacity="0.5"/>
  <rect x="285" y="170" width="5" height="8" fill="#f1c40f" opacity="0.8"/>
  <rect x="270" y="210" width="5" height="8" fill="#f1c40f" opacity="0.8"/>
  <rect x="285" y="210" width="5" height="8" fill="#f1c40f" opacity="0.4"/>
  <rect x="270" y="230" width="5" height="8" fill="#f1c40f" opacity="0.6"/>
  <rect x="285" y="230" width="5" height="8" fill="#f1c40f" opacity="0.9"/>
  <rect x="270" y="270" width="5" height="8" fill="#f1c40f" opacity="0.3"/>
  <rect x="285" y="270" width="5" height="8" fill="#f1c40f" opacity="0.7"/>

  <rect x="320" y="250" width="60" height="150" fill="#3a3a3a" rx="2"/>
  <rect x="325" y="260" width="8" height="12" fill="#f1c40f" opacity="0.7"/>
  <rect x="338" y="260" width="8" height="12" fill="#f1c40f" opacity="0.5"/>
  <rect x="351" y="260" width="8" height="12" fill="#f1c40f" opacity="0.9"/>
  <rect x="364" y="260" width="8" height="12" fill="#f1c40f" opacity="0.4"/>
  <rect x="325" y="285" width="8" height="12" fill="#f1c40f" opacity="0.8"/>
  <rect x="351" y="285" width="8" height="12" fill="#f1c40f" opacity="0.6"/>
  <rect x="338" y="310" width="8" height="12" fill="#f1c40f" opacity="0.5"/>
  <rect x="364" y="310" width="8" height="12" fill="#f1c40f" opacity="0.7"/>

  <rect x="400" y="200" width="55" height="200" fill="#4a4a4a" rx="2"/>
  <rect x="405" y="210" width="8" height="10" fill="#f1c40f" opacity="0.9"/>
  <rect x="418" y="210" width="8" height="10" fill="#f1c40f" opacity="0.5"/>
  <rect x="431" y="210" width="8" height="10" fill="#f1c40f" opacity="0.7"/>
  <rect x="405" y="235" width="8" height="10" fill="#f1c40f" opacity="0.6"/>
  <rect x="418" y="235" width="8" height="10" fill="#f1c40f" opacity="0.8"/>
  <rect x="405" y="260" width="8" height="10" fill="#f1c40f" opacity="0.4"/>
  <rect x="431" y="260" width="8" height="10" fill="#f1c40f" opacity="0.9"/>
  <rect x="418" y="285" width="8" height="10" fill="#f1c40f" opacity="0.5"/>
  <rect x="405" y="310" width="8" height="10" fill="#f1c40f" opacity="0.7"/>

  <rect x="470" y="270" width="65" height="130" fill="#333" rx="2"/>
  <rect x="475" y="280" width="8" height="10" fill="#f1c40f" opacity="0.6"/>
  <rect x="488" y="280" width="8" height="10" fill="#f1c40f" opacity="0.8"/>
  <rect x="501" y="280" width="8" height="10" fill="#f1c40f" opacity="0.4"/>
  <rect x="514" y="280" width="8" height="10" fill="#f1c40f" opacity="0.7"/>
  <rect x="475" y="305" width="8" height="10" fill="#f1c40f" opacity="0.9"/>
  <rect x="501" y="305" width="8" height="10" fill="#f1c40f" opacity="0.5"/>

  <rect x="550" y="230" width="45" height="170" fill="#484848" rx="2"/>
  <rect x="555" y="240" width="8" height="10" fill="#f1c40f" opacity="0.7"/>
  <rect x="568" y="240" width="8" height="10" fill="#f1c40f" opacity="0.5"/>
  <rect x="555" y="265" width="8" height="10" fill="#f1c40f" opacity="0.8"/>
  <rect x="568" y="265" width="8" height="10" fill="#f1c40f" opacity="0.4"/>
  <rect x="555" y="290" width="8" height="10" fill="#f1c40f" opacity="0.6"/>
  <rect x="568" y="290" width="8" height="10" fill="#f1c40f" opacity="0.9"/>

  <rect x="610" y="260" width="70" height="140" fill="#3e3e3e" rx="2"/>
  <rect x="615" y="270" width="8" height="10" fill="#f1c40f" opacity="0.8"/>
  <rect x="628" y="270" width="8" height="10" fill="#f1c40f" opacity="0.4"/>
  <rect x="641" y="270" width="8" height="10" fill="#f1c40f" opacity="0.9"/>
  <rect x="654" y="270" width="8" height="10" fill="#f1c40f" opacity="0.5"/>
  <rect x="667" y="270" width="8" height="10" fill="#f1c40f" opacity="0.7"/>
  <rect x="615" y="295" width="8" height="10" fill="#f1c40f" opacity="0.6"/>
  <rect x="641" y="295" width="8" height="10" fill="#f1c40f" opacity="0.8"/>
  <rect x="667" y="295" width="8" height="10" fill="#f1c40f" opacity="0.4"/>
  <rect x="628" y="320" width="8" height="10" fill="#f1c40f" opacity="0.7"/>

  <rect x="695" y="240" width="50" height="160" fill="#3a3a3a" rx="2"/>
  <rect x="700" y="250" width="8" height="10" fill="#f1c40f" opacity="0.5"/>
  <rect x="713" y="250" width="8" height="10" fill="#f1c40f" opacity="0.9"/>
  <rect x="726" y="250" width="8" height="10" fill="#f1c40f" opacity="0.6"/>
  <rect x="700" y="275" width="8" height="10" fill="#f1c40f" opacity="0.8"/>
  <rect x="713" y="275" width="8" height="10" fill="#f1c40f" opacity="0.4"/>
  <rect x="700" y="300" width="8" height="10" fill="#f1c40f" opacity="0.7"/>

  <rect x="755" y="250" width="45" height="150" fill="#444" rx="2"/>
  <rect x="760" y="260" width="8" height="10" fill="#f1c40f" opacity="0.7"/>
  <rect x="773" y="260" width="8" height="10" fill="#f1c40f" opacity="0.5"/>
  <rect x="760" y="285" width="8" height="10" fill="#f1c40f" opacity="0.9"/>
  <rect x="773" y="285" width="8" height="10" fill="#f1c40f" opacity="0.6"/>
</svg>
